<?xml version="1.0" encoding="iso-8859-1"?>
<!-- Generator: Adobe Illustrator 19.0.0, SVG Export Plug-In . SVG Version: 6.00 Build 0)  -->
<svg version="1.1" id="Layer_1" xmlns="http://www.w3.org/2000/svg" xmlns:xlink="http://www.w3.org/1999/xlink" x="0px" y="0px"
	 viewBox="0 0 502 502" style="enable-background:new 0 0 502 502;" xml:space="preserve">
<g>
	<g>
		<g>
			<path d="M492,330h-16v-22h15.5c5.522,0,10-4.477,10-10s-4.478-10-10-10H476v-22h16c5.522,0,10-4.477,10-10
				c0-94.29-76.71-171-171-171H171C76.71,85,0,161.71,0,256c0,5.523,4.478,10,10,10h16v22H10.5c-5.522,0-10,4.477-10,10
				s4.478,10,10,10H26v22H10c-5.522,0-10,4.477-10,10v67c0,5.523,4.478,10,10,10h482c5.522,0,10-4.477,10-10v-67
				C502,334.477,497.522,330,492,330z M20.327,246C25.491,167.381,91.098,105,171,105h160c79.902,0,145.509,62.381,150.673,141H466
				H36H20.327z M46,288v-22h410v22H46z M456,308v22h-34.875l29.677-22H456z M134.277,308h282.94l-72.355,53.636L134.277,308z
				 M139.624,330H46v-22h7.248L139.624,330z M482,397H20v-47h198.147l126.385,32.19c2.932,0.727,5.74,0.174,8.423-1.657L394.145,350
				H482V397z"/>
			<path d="M160,145h120.498c5.523,0,10-4.477,10-10s-4.478-10-10-10H160c-5.522,0-10,4.477-10,10S154.478,145,160,145z"/>
			<path d="M318.917,145H339c5.522,0,10-4.477,10-10s-4.478-10-10-10h-20.083c-5.522,0-10,4.477-10,10S313.395,145,318.917,145z"/>
		</g>
	</g>
</g>
<g>
</g>
<g>
</g>
<g>
</g>
<g>
</g>
<g>
</g>
<g>
</g>
<g>
</g>
<g>
</g>
<g>
</g>
<g>
</g>
<g>
</g>
<g>
</g>
<g>
</g>
<g>
</g>
<g>
</g>
</svg>
